<svg xmlns="http://www.w3.org/2000/svg" viewBox="0 0 48 48" id="shopping-list"><g data-name="Shopping list"><path d="M22,44H5V10H35V29a1,1,0,0,0,2,0V3a1,1,0,0,0-1-1H30V1a1,1,0,0,0-2,0V2H24V1a1,1,0,0,0-2,0V2H18V1a1,1,0,0,0-2,0V2H12V1a1,1,0,0,0-2,0V2H4A1,1,0,0,0,3,3V45a1,1,0,0,0,1,1H22A1,1,0,0,0,22,44ZM10,4V5a1,1,0,0,0,2,0V4h4V5a1,1,0,0,0,2,0V4h4V5a1,1,0,0,0,2,0V4h4V5a1,1,0,0,0,2,0V4h5V8H5V4Z"></path><path d="M44,36H39.5l-2.7-3.6a1,1,0,0,0-1.6,1.2L37,36H31l1.8-2.4a1,1,0,0,0-1.6-1.2L28.5,36H24a1,1,0,1,0,.18,2l1.52,7.59A3,3,0,0,0,28.64,48H39.36a3,3,0,0,0,2.94-2.41C44,37.16,43.74,38,44,38A1,1,0,0,0,44,36Zm-3.66,9.2a1,1,0,0,1-1,.8H28.64a1,1,0,0,1-1-.8L26.22,38H41.78Z"></path><path d="M29 41v2a1 1 0 0 0 2 0V41A1 1 0 0 0 29 41zM33 41v2a1 1 0 0 0 2 0V41A1 1 0 0 0 33 41zM37 41v2a1 1 0 0 0 2 0V41A1 1 0 0 0 37 41zM13.29 13.29L10 16.59l-1.29-1.3a1 1 0 0 0-1.42 1.42l2 2a1 1 0 0 0 1.42 0l4-4A1 1 0 0 0 13.29 13.29zM32 16H18a1 1 0 0 0 0 2H32A1 1 0 0 0 32 16zM13.29 23.29L10 26.59l-1.29-1.3a1 1 0 0 0-1.42 1.42l2 2a1 1 0 0 0 1.42 0l4-4A1 1 0 0 0 13.29 23.29zM32 26H18a1 1 0 0 0 0 2H32A1 1 0 0 0 32 26zM13.29 33.29L10 36.59l-1.29-1.3a1 1 0 0 0-1.42 1.42c3.29 3.28 2 3.4 7.42-2A1 1 0 0 0 13.29 33.29zM18 36a1 1 0 0 0 0 2h2a1 1 0 0 0 0-2z"></path></g></svg>